<mxfile host="app.diagrams.net" modified="2023-11-23T22:49:27.173Z" agent="Mozilla/5.0 (Windows NT 10.0; Win64; x64) AppleWebKit/537.36 (KHTML, like Gecko) Chrome/109.0.0.0 Safari/537.36" etag="nYd1dNTnSSe8Bwbsmj8P" version="22.1.3" type="github">
  <diagram name="Page-1" id="74e2e168-ea6b-b213-b513-2b3c1d86103e">
    <mxGraphModel dx="1235" dy="615" grid="0" gridSize="10" guides="1" tooltips="1" connect="1" arrows="1" fold="1" page="1" pageScale="1" pageWidth="1100" pageHeight="850" background="none" math="0" shadow="0">
      <root>
        <mxCell id="0" />
        <mxCell id="1" parent="0" />
        <mxCell id="77e6c97f196da883-1" value="&lt;font style=&quot;font-size: 12px;&quot;&gt;Tenant Service: API for Users in Tenant&lt;/font&gt;" style="swimlane;html=1;childLayout=stackLayout;startSize=20;rounded=0;shadow=0;labelBackgroundColor=none;strokeWidth=1;fontFamily=Verdana;fontSize=8;align=center;" parent="1" vertex="1">
          <mxGeometry x="33" y="65" width="1022" height="638" as="geometry" />
        </mxCell>
        <mxCell id="77e6c97f196da883-2" value="Actors" style="swimlane;html=1;startSize=20;" parent="77e6c97f196da883-1" vertex="1">
          <mxGeometry y="20" width="160" height="618" as="geometry" />
        </mxCell>
        <mxCell id="5Vi3VOvimNyJj6Njxke3-18" style="edgeStyle=orthogonalEdgeStyle;rounded=0;orthogonalLoop=1;jettySize=auto;html=1;" edge="1" parent="77e6c97f196da883-2" source="77e6c97f196da883-8">
          <mxGeometry relative="1" as="geometry">
            <mxPoint x="180" y="87.5" as="targetPoint" />
          </mxGeometry>
        </mxCell>
        <mxCell id="77e6c97f196da883-8" value="&lt;font style=&quot;font-size: 11px;&quot;&gt;Send request&lt;/font&gt;" style="rounded=1;whiteSpace=wrap;html=1;shadow=0;labelBackgroundColor=none;strokeWidth=1;fontFamily=Verdana;fontSize=8;align=center;" parent="77e6c97f196da883-2" vertex="1">
          <mxGeometry x="20" y="65" width="100" height="45" as="geometry" />
        </mxCell>
        <mxCell id="5Vi3VOvimNyJj6Njxke3-16" value="&lt;font style=&quot;font-size: 11px;&quot;&gt;Receiver result&lt;/font&gt;" style="rounded=1;whiteSpace=wrap;html=1;shadow=0;labelBackgroundColor=none;strokeWidth=1;fontFamily=Verdana;fontSize=8;align=center;" vertex="1" parent="77e6c97f196da883-2">
          <mxGeometry x="34" y="575" width="100" height="38" as="geometry" />
        </mxCell>
        <mxCell id="77e6c97f196da883-3" value="API Gateway" style="swimlane;html=1;startSize=20;" parent="77e6c97f196da883-1" vertex="1">
          <mxGeometry x="160" y="20" width="160" height="618" as="geometry" />
        </mxCell>
        <mxCell id="5Vi3VOvimNyJj6Njxke3-19" style="edgeStyle=orthogonalEdgeStyle;rounded=0;orthogonalLoop=1;jettySize=auto;html=1;" edge="1" parent="77e6c97f196da883-3" source="5Vi3VOvimNyJj6Njxke3-4">
          <mxGeometry relative="1" as="geometry">
            <mxPoint x="180" y="90" as="targetPoint" />
          </mxGeometry>
        </mxCell>
        <mxCell id="5Vi3VOvimNyJj6Njxke3-20" style="edgeStyle=orthogonalEdgeStyle;rounded=0;orthogonalLoop=1;jettySize=auto;html=1;" edge="1" parent="77e6c97f196da883-3" source="5Vi3VOvimNyJj6Njxke3-4" target="5Vi3VOvimNyJj6Njxke3-7">
          <mxGeometry relative="1" as="geometry">
            <Array as="points">
              <mxPoint x="10" y="90" />
              <mxPoint x="10" y="283" />
            </Array>
          </mxGeometry>
        </mxCell>
        <mxCell id="5Vi3VOvimNyJj6Njxke3-4" value="authorize info cache valid?" style="rhombus;whiteSpace=wrap;html=1;" vertex="1" parent="77e6c97f196da883-3">
          <mxGeometry x="30" y="50" width="80" height="80" as="geometry" />
        </mxCell>
        <mxCell id="5Vi3VOvimNyJj6Njxke3-7" value="&lt;font style=&quot;font-size: 11px;&quot;&gt;route path, send request&lt;/font&gt;" style="rounded=1;whiteSpace=wrap;html=1;shadow=0;labelBackgroundColor=none;strokeWidth=1;fontFamily=Verdana;fontSize=8;align=center;" vertex="1" parent="77e6c97f196da883-3">
          <mxGeometry x="30" y="260" width="100" height="45" as="geometry" />
        </mxCell>
        <mxCell id="5Vi3VOvimNyJj6Njxke3-8" value="is Authorize?" style="rhombus;whiteSpace=wrap;html=1;" vertex="1" parent="77e6c97f196da883-3">
          <mxGeometry x="30" y="161.5" width="80" height="78.5" as="geometry" />
        </mxCell>
        <mxCell id="5Vi3VOvimNyJj6Njxke3-62" style="edgeStyle=orthogonalEdgeStyle;rounded=0;orthogonalLoop=1;jettySize=auto;html=1;" edge="1" parent="77e6c97f196da883-3" source="5Vi3VOvimNyJj6Njxke3-15">
          <mxGeometry relative="1" as="geometry">
            <mxPoint x="-22.823536592371283" y="597.5" as="targetPoint" />
          </mxGeometry>
        </mxCell>
        <mxCell id="5Vi3VOvimNyJj6Njxke3-15" value="&lt;font style=&quot;font-size: 11px;&quot;&gt;Return result&lt;/font&gt;" style="rounded=1;whiteSpace=wrap;html=1;shadow=0;labelBackgroundColor=none;strokeWidth=1;fontFamily=Verdana;fontSize=8;align=center;" vertex="1" parent="77e6c97f196da883-3">
          <mxGeometry x="33" y="581" width="100" height="33" as="geometry" />
        </mxCell>
        <mxCell id="5Vi3VOvimNyJj6Njxke3-42" style="edgeStyle=orthogonalEdgeStyle;rounded=0;orthogonalLoop=1;jettySize=auto;html=1;entryX=0.382;entryY=0.013;entryDx=0;entryDy=0;entryPerimeter=0;" edge="1" parent="77e6c97f196da883-3" source="5Vi3VOvimNyJj6Njxke3-8" target="5Vi3VOvimNyJj6Njxke3-7">
          <mxGeometry relative="1" as="geometry" />
        </mxCell>
        <mxCell id="77e6c97f196da883-4" value="Authorize Lamda Function" style="swimlane;html=1;startSize=20;" parent="77e6c97f196da883-1" vertex="1">
          <mxGeometry x="320" y="20" width="210" height="618" as="geometry" />
        </mxCell>
        <mxCell id="5Vi3VOvimNyJj6Njxke3-21" style="edgeStyle=orthogonalEdgeStyle;rounded=0;orthogonalLoop=1;jettySize=auto;html=1;entryX=0.5;entryY=0;entryDx=0;entryDy=0;" edge="1" parent="77e6c97f196da883-4" source="5Vi3VOvimNyJj6Njxke3-5" target="5Vi3VOvimNyJj6Njxke3-6">
          <mxGeometry relative="1" as="geometry" />
        </mxCell>
        <mxCell id="5Vi3VOvimNyJj6Njxke3-5" value="&lt;span style=&quot;font-size: 11px;&quot;&gt;Integrate Okta&lt;/span&gt;" style="rounded=1;whiteSpace=wrap;html=1;shadow=0;labelBackgroundColor=none;strokeWidth=1;fontFamily=Verdana;fontSize=8;align=center;" vertex="1" parent="77e6c97f196da883-4">
          <mxGeometry x="30" y="65" width="100" height="45" as="geometry" />
        </mxCell>
        <mxCell id="5Vi3VOvimNyJj6Njxke3-6" value="&lt;span style=&quot;font-size: 11px;&quot;&gt;Handle authorize&lt;/span&gt;" style="rounded=1;whiteSpace=wrap;html=1;shadow=0;labelBackgroundColor=none;strokeWidth=1;fontFamily=Verdana;fontSize=8;align=center;" vertex="1" parent="77e6c97f196da883-4">
          <mxGeometry x="30" y="131" width="100" height="39" as="geometry" />
        </mxCell>
        <mxCell id="5Vi3VOvimNyJj6Njxke3-38" value="&lt;span style=&quot;font-size: 11px;&quot;&gt;Return authorize result&lt;/span&gt;" style="rounded=1;whiteSpace=wrap;html=1;shadow=0;labelBackgroundColor=none;strokeWidth=1;fontFamily=Verdana;fontSize=8;align=center;" vertex="1" parent="77e6c97f196da883-4">
          <mxGeometry x="30" y="192" width="100" height="37" as="geometry" />
        </mxCell>
        <mxCell id="5Vi3VOvimNyJj6Njxke3-40" style="edgeStyle=orthogonalEdgeStyle;rounded=0;orthogonalLoop=1;jettySize=auto;html=1;entryX=0.5;entryY=0;entryDx=0;entryDy=0;" edge="1" parent="77e6c97f196da883-4">
          <mxGeometry relative="1" as="geometry">
            <mxPoint x="79.5" y="170" as="sourcePoint" />
            <mxPoint x="79.5" y="191" as="targetPoint" />
          </mxGeometry>
        </mxCell>
        <mxCell id="77e6c97f196da883-5" value="Tenant Service" style="swimlane;html=1;startSize=20;" parent="77e6c97f196da883-1" vertex="1">
          <mxGeometry x="530" y="20" width="170" height="618" as="geometry" />
        </mxCell>
        <mxCell id="5Vi3VOvimNyJj6Njxke3-9" value="&lt;font style=&quot;font-size: 11px;&quot;&gt;Handle input request, call okta API&lt;/font&gt;" style="rounded=1;whiteSpace=wrap;html=1;shadow=0;labelBackgroundColor=none;strokeWidth=1;fontFamily=Verdana;fontSize=8;align=center;" vertex="1" parent="77e6c97f196da883-5">
          <mxGeometry x="35" y="260" width="100" height="45" as="geometry" />
        </mxCell>
        <mxCell id="5Vi3VOvimNyJj6Njxke3-28" style="edgeStyle=orthogonalEdgeStyle;rounded=0;orthogonalLoop=1;jettySize=auto;html=1;entryX=0.5;entryY=0;entryDx=0;entryDy=0;" edge="1" parent="77e6c97f196da883-5" source="5Vi3VOvimNyJj6Njxke3-14" target="5Vi3VOvimNyJj6Njxke3-26">
          <mxGeometry relative="1" as="geometry" />
        </mxCell>
        <mxCell id="5Vi3VOvimNyJj6Njxke3-14" value="&lt;font style=&quot;font-size: 11px;&quot;&gt;Handle result&lt;/font&gt;" style="rounded=1;whiteSpace=wrap;html=1;shadow=0;labelBackgroundColor=none;strokeWidth=1;fontFamily=Verdana;fontSize=8;align=center;" vertex="1" parent="77e6c97f196da883-5">
          <mxGeometry x="35" y="353" width="100" height="45" as="geometry" />
        </mxCell>
        <mxCell id="5Vi3VOvimNyJj6Njxke3-56" style="edgeStyle=orthogonalEdgeStyle;rounded=0;orthogonalLoop=1;jettySize=auto;html=1;" edge="1" parent="77e6c97f196da883-5" source="5Vi3VOvimNyJj6Njxke3-26">
          <mxGeometry relative="1" as="geometry">
            <mxPoint x="85" y="516.6000671386719" as="targetPoint" />
          </mxGeometry>
        </mxCell>
        <mxCell id="5Vi3VOvimNyJj6Njxke3-26" value="&lt;span style=&quot;font-size: 11px;&quot;&gt;Connect Legacy DB&lt;/span&gt;" style="rounded=1;whiteSpace=wrap;html=1;shadow=0;labelBackgroundColor=none;strokeWidth=1;fontFamily=Verdana;fontSize=8;align=center;" vertex="1" parent="77e6c97f196da883-5">
          <mxGeometry x="35" y="440" width="100" height="45" as="geometry" />
        </mxCell>
        <mxCell id="5Vi3VOvimNyJj6Njxke3-58" style="edgeStyle=orthogonalEdgeStyle;rounded=0;orthogonalLoop=1;jettySize=auto;html=1;entryX=0.5;entryY=0;entryDx=0;entryDy=0;" edge="1" parent="77e6c97f196da883-5" source="5Vi3VOvimNyJj6Njxke3-55" target="5Vi3VOvimNyJj6Njxke3-57">
          <mxGeometry relative="1" as="geometry" />
        </mxCell>
        <mxCell id="5Vi3VOvimNyJj6Njxke3-55" value="&lt;span style=&quot;font-size: 11px;&quot;&gt;Exec query, update, handle data&lt;/span&gt;" style="rounded=1;whiteSpace=wrap;html=1;shadow=0;labelBackgroundColor=none;strokeWidth=1;fontFamily=Verdana;fontSize=8;align=center;" vertex="1" parent="77e6c97f196da883-5">
          <mxGeometry x="38" y="518" width="100" height="37" as="geometry" />
        </mxCell>
        <mxCell id="5Vi3VOvimNyJj6Njxke3-57" value="&lt;span style=&quot;font-size: 11px;&quot;&gt;Return result&lt;/span&gt;" style="rounded=1;whiteSpace=wrap;html=1;shadow=0;labelBackgroundColor=none;strokeWidth=1;fontFamily=Verdana;fontSize=8;align=center;" vertex="1" parent="77e6c97f196da883-5">
          <mxGeometry x="38" y="572" width="100" height="35" as="geometry" />
        </mxCell>
        <mxCell id="5Vi3VOvimNyJj6Njxke3-10" value="Okta" style="swimlane;html=1;startSize=20;" vertex="1" parent="77e6c97f196da883-1">
          <mxGeometry x="700" y="20" width="160" height="618" as="geometry" />
        </mxCell>
        <mxCell id="5Vi3VOvimNyJj6Njxke3-25" style="edgeStyle=orthogonalEdgeStyle;rounded=0;orthogonalLoop=1;jettySize=auto;html=1;" edge="1" parent="5Vi3VOvimNyJj6Njxke3-10" source="5Vi3VOvimNyJj6Njxke3-11">
          <mxGeometry relative="1" as="geometry">
            <mxPoint x="80" y="350" as="targetPoint" />
          </mxGeometry>
        </mxCell>
        <mxCell id="5Vi3VOvimNyJj6Njxke3-11" value="&lt;font style=&quot;font-size: 11px;&quot;&gt;Handle request&lt;/font&gt;" style="rounded=1;whiteSpace=wrap;html=1;shadow=0;labelBackgroundColor=none;strokeWidth=1;fontFamily=Verdana;fontSize=8;align=center;" vertex="1" parent="5Vi3VOvimNyJj6Njxke3-10">
          <mxGeometry x="30" y="260" width="100" height="45" as="geometry" />
        </mxCell>
        <mxCell id="5Vi3VOvimNyJj6Njxke3-27" style="edgeStyle=orthogonalEdgeStyle;rounded=0;orthogonalLoop=1;jettySize=auto;html=1;" edge="1" parent="5Vi3VOvimNyJj6Njxke3-10" source="5Vi3VOvimNyJj6Njxke3-13">
          <mxGeometry relative="1" as="geometry">
            <mxPoint x="-30" y="375.5" as="targetPoint" />
          </mxGeometry>
        </mxCell>
        <mxCell id="5Vi3VOvimNyJj6Njxke3-13" value="&lt;font style=&quot;font-size: 11px;&quot;&gt;Return result&lt;/font&gt;" style="rounded=1;whiteSpace=wrap;html=1;shadow=0;labelBackgroundColor=none;strokeWidth=1;fontFamily=Verdana;fontSize=8;align=center;" vertex="1" parent="5Vi3VOvimNyJj6Njxke3-10">
          <mxGeometry x="30" y="353" width="100" height="45" as="geometry" />
        </mxCell>
        <mxCell id="5Vi3VOvimNyJj6Njxke3-36" value="Intergrate valid?" style="rhombus;whiteSpace=wrap;html=1;" vertex="1" parent="5Vi3VOvimNyJj6Njxke3-10">
          <mxGeometry x="30" y="46" width="80" height="80" as="geometry" />
        </mxCell>
        <mxCell id="5Vi3VOvimNyJj6Njxke3-22" style="edgeStyle=orthogonalEdgeStyle;rounded=0;orthogonalLoop=1;jettySize=auto;html=1;entryX=1;entryY=0.5;entryDx=0;entryDy=0;exitX=0;exitY=0.25;exitDx=0;exitDy=0;" edge="1" parent="77e6c97f196da883-1" source="5Vi3VOvimNyJj6Njxke3-38" target="5Vi3VOvimNyJj6Njxke3-8">
          <mxGeometry relative="1" as="geometry" />
        </mxCell>
        <mxCell id="5Vi3VOvimNyJj6Njxke3-24" style="edgeStyle=orthogonalEdgeStyle;rounded=0;orthogonalLoop=1;jettySize=auto;html=1;entryX=0;entryY=0.5;entryDx=0;entryDy=0;" edge="1" parent="77e6c97f196da883-1" source="5Vi3VOvimNyJj6Njxke3-9" target="5Vi3VOvimNyJj6Njxke3-11">
          <mxGeometry relative="1" as="geometry" />
        </mxCell>
        <mxCell id="5Vi3VOvimNyJj6Njxke3-23" style="edgeStyle=orthogonalEdgeStyle;rounded=0;orthogonalLoop=1;jettySize=auto;html=1;entryX=0;entryY=0.5;entryDx=0;entryDy=0;" edge="1" parent="77e6c97f196da883-1" source="5Vi3VOvimNyJj6Njxke3-7" target="5Vi3VOvimNyJj6Njxke3-9">
          <mxGeometry relative="1" as="geometry">
            <mxPoint x="560" y="302.5" as="targetPoint" />
          </mxGeometry>
        </mxCell>
        <mxCell id="5Vi3VOvimNyJj6Njxke3-37" style="edgeStyle=orthogonalEdgeStyle;rounded=0;orthogonalLoop=1;jettySize=auto;html=1;entryX=0;entryY=0.5;entryDx=0;entryDy=0;" edge="1" parent="77e6c97f196da883-1" source="5Vi3VOvimNyJj6Njxke3-5" target="5Vi3VOvimNyJj6Njxke3-36">
          <mxGeometry relative="1" as="geometry">
            <Array as="points">
              <mxPoint x="590" y="108" />
              <mxPoint x="590" y="106" />
            </Array>
          </mxGeometry>
        </mxCell>
        <mxCell id="5Vi3VOvimNyJj6Njxke3-46" value="Legacy DB" style="swimlane;html=1;startSize=20;" vertex="1" parent="77e6c97f196da883-1">
          <mxGeometry x="860" y="20" width="162" height="618" as="geometry" />
        </mxCell>
        <mxCell id="5Vi3VOvimNyJj6Njxke3-47" style="edgeStyle=orthogonalEdgeStyle;rounded=0;orthogonalLoop=1;jettySize=auto;html=1;" edge="1" parent="5Vi3VOvimNyJj6Njxke3-46" source="5Vi3VOvimNyJj6Njxke3-48">
          <mxGeometry relative="1" as="geometry">
            <mxPoint x="80" y="350" as="targetPoint" />
          </mxGeometry>
        </mxCell>
        <mxCell id="5Vi3VOvimNyJj6Njxke3-48" value="&lt;font style=&quot;font-size: 11px;&quot;&gt;Handle request&lt;/font&gt;" style="rounded=1;whiteSpace=wrap;html=1;shadow=0;labelBackgroundColor=none;strokeWidth=1;fontFamily=Verdana;fontSize=8;align=center;" vertex="1" parent="5Vi3VOvimNyJj6Njxke3-46">
          <mxGeometry x="30" y="260" width="100" height="45" as="geometry" />
        </mxCell>
        <mxCell id="5Vi3VOvimNyJj6Njxke3-49" style="edgeStyle=orthogonalEdgeStyle;rounded=0;orthogonalLoop=1;jettySize=auto;html=1;" edge="1" parent="5Vi3VOvimNyJj6Njxke3-46" source="5Vi3VOvimNyJj6Njxke3-50">
          <mxGeometry relative="1" as="geometry">
            <mxPoint x="-30" y="375.5" as="targetPoint" />
          </mxGeometry>
        </mxCell>
        <mxCell id="5Vi3VOvimNyJj6Njxke3-50" value="&lt;font style=&quot;font-size: 11px;&quot;&gt;Return result&lt;/font&gt;" style="rounded=1;whiteSpace=wrap;html=1;shadow=0;labelBackgroundColor=none;strokeWidth=1;fontFamily=Verdana;fontSize=8;align=center;" vertex="1" parent="5Vi3VOvimNyJj6Njxke3-46">
          <mxGeometry x="30" y="353" width="100" height="45" as="geometry" />
        </mxCell>
        <mxCell id="5Vi3VOvimNyJj6Njxke3-51" value="Intergrate valid?" style="rhombus;whiteSpace=wrap;html=1;" vertex="1" parent="5Vi3VOvimNyJj6Njxke3-46">
          <mxGeometry x="30" y="46" width="80" height="80" as="geometry" />
        </mxCell>
        <mxCell id="5Vi3VOvimNyJj6Njxke3-53" value="Connect Info valid?" style="rhombus;whiteSpace=wrap;html=1;" vertex="1" parent="5Vi3VOvimNyJj6Njxke3-46">
          <mxGeometry x="41" y="422.5" width="80" height="80" as="geometry" />
        </mxCell>
        <mxCell id="5Vi3VOvimNyJj6Njxke3-54" style="edgeStyle=orthogonalEdgeStyle;rounded=0;orthogonalLoop=1;jettySize=auto;html=1;entryX=0;entryY=0.5;entryDx=0;entryDy=0;" edge="1" parent="77e6c97f196da883-1" source="5Vi3VOvimNyJj6Njxke3-26" target="5Vi3VOvimNyJj6Njxke3-53">
          <mxGeometry relative="1" as="geometry" />
        </mxCell>
        <mxCell id="5Vi3VOvimNyJj6Njxke3-61" style="edgeStyle=orthogonalEdgeStyle;rounded=0;orthogonalLoop=1;jettySize=auto;html=1;entryX=1;entryY=0.25;entryDx=0;entryDy=0;" edge="1" parent="77e6c97f196da883-1" source="5Vi3VOvimNyJj6Njxke3-57" target="5Vi3VOvimNyJj6Njxke3-15">
          <mxGeometry relative="1" as="geometry" />
        </mxCell>
        <mxCell id="5Vi3VOvimNyJj6Njxke3-43" value="Y" style="text;html=1;align=center;verticalAlign=middle;resizable=0;points=[];autosize=1;strokeColor=none;fillColor=none;" vertex="1" parent="1">
          <mxGeometry x="263" y="285" width="26" height="26" as="geometry" />
        </mxCell>
        <mxCell id="5Vi3VOvimNyJj6Njxke3-44" value="N" style="text;html=1;align=center;verticalAlign=middle;resizable=0;points=[];autosize=1;strokeColor=none;fillColor=none;" vertex="1" parent="1">
          <mxGeometry x="294" y="123" width="27" height="26" as="geometry" />
        </mxCell>
        <mxCell id="5Vi3VOvimNyJj6Njxke3-45" value="Y" style="text;html=1;align=center;verticalAlign=middle;resizable=0;points=[];autosize=1;strokeColor=none;fillColor=none;" vertex="1" parent="1">
          <mxGeometry x="206" y="153" width="26" height="26" as="geometry" />
        </mxCell>
      </root>
    </mxGraphModel>
  </diagram>
</mxfile>
